# xmcd
#
# Track frame offsets: 
#        150
#        1944
#        14470
#        29319
#        45311
#        58653
#        72810
#        85109
#        100974
#        117910
#        130140
#        147866
#        169423
#        185354
#        201211
#        216515
#        232082
#        245128
#        259479
#        271288
#        285740
#
# Disc length: 4021 seconds
#
# Revision: 4
# Processed by: cddbd v1.5.2PL0 Copyright (c) Steve Scherf et al.
# Submitted via: ExactAudioCopy v1.3
#
DISCID=3b0fb315
DTITLE=The BossHoss - Rodeo radio
DYEAR=2006
DGENRE=Country
TTITLE0=Intro
TTITLE1=Rodeo radio
TTITLE2=Ring ring ring
TTITLE3=My favorite game
TTITLE4=I say a little prayer
TTITLE5=I'm on a high
TTITLE6=Hell yeah
TTITLE7=Hot stuff
TTITLE8=Rodeo queen
TTITLE9=It's not unusual
TTITLE10=Shake a leg
TTITLE11=Mary, marry me
TTITLE12=Jesus built my hotrod
TTITLE13=Upside down
TTITLE14=Ça plane pour moi
TTITLE15=You'll never walk alone
TTITLE16=Yodle blues
TTITLE17=Come on, Krupa
TTITLE18=Jambalaya
TTITLE19=Riding home
TTITLE20=Last Christmas
EXTD=YEAR: 2006
EXTT0=
EXTT1=
EXTT2=
EXTT3=
EXTT4=
EXTT5=
EXTT6=
EXTT7=
EXTT8=
EXTT9=
EXTT10=
EXTT11=
EXTT12=
EXTT13=
EXTT14=
EXTT15=
EXTT16=
EXTT17=
EXTT18=
EXTT19=
EXTT20=
PLAYORDER=
